<?xml version="1.0" encoding="UTF-8" standalone="no"?>
<!DOCTYPE svg PUBLIC "-//W3C//DTD SVG 1.1//EN"
 "http://www.w3.org/Graphics/SVG/1.1/DTD/svg11.dtd">
<!-- Generated by graphviz version 15.1.1 (20260805.0921)
 -->
<!-- Title: Objective1Subsystem Pages: 1 -->
<svg width="2000pt" height="731pt"
 viewBox="0.00 0.00 2000.00 731.00" xmlns="http://www.w3.org/2000/svg" xmlns:xlink="http://www.w3.org/1999/xlink">
<g id="graph0" class="graph" transform="scale(1 1) rotate(0) translate(4 726.5)">
<title>Objective1Subsystem</title>
<polygon fill="white" stroke="none" points="-4,4 -4,-726.5 1995.64,-726.5 1995.64,4 -4,4"/>
<text xml:space="preserve" text-anchor="middle" x="995.82" y="-7.2" font-family="Times,serif" font-size="14.00">Objective1Subsystem</text>
<!-- n3 -->
<g id="node1" class="node">
<title>n3</title>
<polygon fill="none" stroke="black" points="1587.53,-518.5 1451.94,-500.5 1587.53,-482.5 1723.13,-500.5 1587.53,-518.5"/>
<text xml:space="preserve" text-anchor="middle" x="1587.53" y="-495.45" font-family="Times,serif" font-size="14.00">telemetry_io_readData</text>
</g>
<!-- x10 -->
<g id="node49" class="node">
<title>x10</title>
<ellipse fill="black" stroke="black" cx="1790.6" cy="-500.5" rx="1.8" ry="1.8"/>
</g>
<!-- n3&#45;&gt;x10 -->
<g id="edge34" class="edge">
<title>n3:e&#45;&gt;x10:w</title>
<path fill="none" stroke="black" stroke-width="3" d="M1727.85,-500.5C1750.71,-500.5 1759.1,-500.5 1777.44,-500.5"/>
<polygon fill="black" stroke="black" stroke-width="3" points="1774.26,-504 1784.26,-500.5 1774.26,-497 1774.26,-504"/>
</g>
<!-- n4 -->
<g id="node2" class="node">
<title>n4</title>
<polygon fill="none" stroke="black" points="1587.53,-662.5 1433.84,-644.5 1587.53,-626.5 1741.22,-644.5 1587.53,-662.5"/>
<text xml:space="preserve" text-anchor="middle" x="1587.53" y="-639.45" font-family="Times,serif" font-size="14.00">telemetry_io_readAddress</text>
</g>
<!-- n5 -->
<g id="node3" class="node">
<title>n5</title>
<polygon fill="none" stroke="black" points="1231.39,-222.5 1113.89,-204.5 1231.39,-186.5 1348.89,-204.5 1231.39,-222.5"/>
<text xml:space="preserve" text-anchor="middle" x="1231.39" y="-199.45" font-family="Times,serif" font-size="14.00">telemetry_io_result</text>
</g>
<!-- n6 -->
<g id="node4" class="node">
<title>n6</title>
<polygon fill="none" stroke="black" points="552.14,-614.5 376.73,-596.5 552.14,-578.5 727.54,-596.5 552.14,-614.5"/>
<text xml:space="preserve" text-anchor="middle" x="552.14" y="-591.45" font-family="Times,serif" font-size="14.00">telemetry_io_multiplierActive</text>
</g>
<!-- c46 -->
<g id="node39" class="node">
<title>c46</title>
<polygon fill="none" stroke="black" points="1076.51,-414.75 1076.51,-586.25 1386.26,-586.25 1386.26,-414.75 1076.51,-414.75"/>
<text xml:space="preserve" text-anchor="middle" x="1138.14" y="-568.95" font-family="Times,serif" font-size="14.00">clock</text>
<polyline fill="none" stroke="black" points="1076.51,-561.75 1199.76,-561.75"/>
<text xml:space="preserve" text-anchor="middle" x="1138.14" y="-544.45" font-family="Times,serif" font-size="14.00">io_claActive</text>
<polyline fill="none" stroke="black" points="1076.51,-537.25 1199.76,-537.25"/>
<text xml:space="preserve" text-anchor="middle" x="1138.14" y="-519.95" font-family="Times,serif" font-size="14.00">io_multiplierActive</text>
<polyline fill="none" stroke="black" points="1076.51,-512.75 1199.76,-512.75"/>
<text xml:space="preserve" text-anchor="middle" x="1138.14" y="-495.45" font-family="Times,serif" font-size="14.00">io_operationValid</text>
<polyline fill="none" stroke="black" points="1076.51,-488.25 1199.76,-488.25"/>
<text xml:space="preserve" text-anchor="middle" x="1138.14" y="-470.95" font-family="Times,serif" font-size="14.00">io_readAddress</text>
<polyline fill="none" stroke="black" points="1076.51,-463.75 1199.76,-463.75"/>
<text xml:space="preserve" text-anchor="middle" x="1138.14" y="-446.45" font-family="Times,serif" font-size="14.00">io_result</text>
<polyline fill="none" stroke="black" points="1076.51,-439.25 1199.76,-439.25"/>
<text xml:space="preserve" text-anchor="middle" x="1138.14" y="-421.95" font-family="Times,serif" font-size="14.00">reset</text>
<polyline fill="none" stroke="black" points="1199.76,-414.75 1199.76,-586.25"/>
<text xml:space="preserve" text-anchor="middle" x="1252.01" y="-503.7" font-family="Times,serif" font-size="14.00">telemetry</text>
<text xml:space="preserve" text-anchor="middle" x="1252.01" y="-487.2" font-family="Times,serif" font-size="14.00">TelemetryBlock</text>
<polyline fill="none" stroke="black" points="1304.26,-414.75 1304.26,-586.25"/>
<text xml:space="preserve" text-anchor="middle" x="1345.26" y="-495.45" font-family="Times,serif" font-size="14.00">io_readData</text>
</g>
<!-- n6&#45;&gt;c46 -->
<g id="edge51" class="edge">
<title>n6:e&#45;&gt;c46:w</title>
<path fill="none" stroke="black" d="M727.54,-596.5C866.89,-596.5 919.25,-646.16 1040.51,-577.5 1060.9,-565.96 1052.81,-537.53 1065.49,-528.1"/>
<polygon fill="black" stroke="black" points="1066.38,-531.48 1075.06,-525.41 1064.48,-524.74 1066.38,-531.48"/>
</g>
<!-- n7 -->
<g id="node5" class="node">
<title>n7</title>
<polygon fill="none" stroke="black" points="902.03,-682.5 763.54,-664.5 902.03,-646.5 1040.51,-664.5 902.03,-682.5"/>
<text xml:space="preserve" text-anchor="middle" x="902.03" y="-659.45" font-family="Times,serif" font-size="14.00">telemetry_io_claActive</text>
</g>
<!-- n7&#45;&gt;c46 -->
<g id="edge53" class="edge">
<title>n7:e&#45;&gt;c46:w</title>
<path fill="none" stroke="black" d="M1040.51,-664.5C1089.47,-664.5 1034.26,-568.42 1065.31,-551.9"/>
<polygon fill="black" stroke="black" points="1065.99,-555.34 1075.03,-549.82 1064.52,-548.49 1065.99,-555.34"/>
</g>
<!-- n8 -->
<g id="node6" class="node">
<title>n8</title>
<polygon fill="none" stroke="black" points="1587.53,-608.5 1422.26,-590.5 1587.53,-572.5 1752.8,-590.5 1587.53,-608.5"/>
<text xml:space="preserve" text-anchor="middle" x="1587.53" y="-585.45" font-family="Times,serif" font-size="14.00">telemetry_io_operationValid</text>
</g>
<!-- n9 -->
<g id="node7" class="node">
<title>n9</title>
<polygon fill="none" stroke="black" points="1587.53,-336.5 1491.03,-318.5 1587.53,-300.5 1684.04,-318.5 1587.53,-336.5"/>
<text xml:space="preserve" text-anchor="middle" x="1587.53" y="-313.45" font-family="Times,serif" font-size="14.00">telemetry_reset</text>
</g>
<!-- n10 -->
<g id="node8" class="node">
<title>n10</title>
<polygon fill="none" stroke="black" points="1587.53,-390.5 1487.41,-372.5 1587.53,-354.5 1687.66,-372.5 1587.53,-390.5"/>
<text xml:space="preserve" text-anchor="middle" x="1587.53" y="-367.45" font-family="Times,serif" font-size="14.00">telemetry_clock</text>
</g>
<!-- n11 -->
<g id="node9" class="node">
<title>n11</title>
<polygon fill="none" stroke="black" points="552.14,-276.5 450.56,-258.5 552.14,-240.5 653.71,-258.5 552.14,-276.5"/>
<text xml:space="preserve" text-anchor="middle" x="552.14" y="-253.45" font-family="Times,serif" font-size="14.00">alu_io_overflow</text>
</g>
<!-- x16 -->
<g id="node55" class="node">
<title>x16</title>
<ellipse fill="black" stroke="black" cx="902.03" cy="-258.5" rx="1.8" ry="1.8"/>
</g>
<!-- n11&#45;&gt;x16 -->
<g id="edge4" class="edge">
<title>n11:e&#45;&gt;x16:w</title>
<path fill="none" stroke="black" d="M657.5,-258.5C760.85,-258.5 789.49,-258.5 887.43,-258.5"/>
<polygon fill="black" stroke="black" points="887.23,-262 897.23,-258.5 887.23,-255 887.23,-262"/>
</g>
<!-- n12 -->
<g id="node10" class="node">
<title>n12</title>
<polygon fill="none" stroke="black" points="552.14,-411.5 470.83,-393.5 552.14,-375.5 633.44,-393.5 552.14,-411.5"/>
<text xml:space="preserve" text-anchor="middle" x="552.14" y="-388.45" font-family="Times,serif" font-size="14.00">alu_io_carry</text>
</g>
<!-- x17 -->
<g id="node56" class="node">
<title>x17</title>
<ellipse fill="black" stroke="black" cx="902.03" cy="-626.5" rx="1.8" ry="1.8"/>
</g>
<!-- n12&#45;&gt;x17 -->
<g id="edge6" class="edge">
<title>n12:e&#45;&gt;x17:w</title>
<path fill="none" stroke="black" d="M636.47,-393.5C683.52,-393.5 698.95,-410.12 727.54,-447.5 763.96,-495.12 722.82,-533.5 763.54,-577.5 804.32,-621.57 831.4,-626.08 887.52,-626.47"/>
<polygon fill="black" stroke="black" points="887.22,-629.97 897.23,-626.5 887.24,-622.97 887.22,-629.97"/>
</g>
<!-- n13 -->
<g id="node11" class="node">
<title>n13</title>
<polygon fill="none" stroke="black" points="552.14,-330.5 453.46,-312.5 552.14,-294.5 650.81,-312.5 552.14,-330.5"/>
<text xml:space="preserve" text-anchor="middle" x="552.14" y="-307.45" font-family="Times,serif" font-size="14.00">alu_io_negative</text>
</g>
<!-- x18 -->
<g id="node57" class="node">
<title>x18</title>
<ellipse fill="black" stroke="black" cx="902.03" cy="-312.5" rx="1.8" ry="1.8"/>
</g>
<!-- n13&#45;&gt;x18 -->
<g id="edge8" class="edge">
<title>n13:e&#45;&gt;x18:w</title>
<path fill="none" stroke="black" d="M654.53,-312.5C759.15,-312.5 788.14,-312.5 887.29,-312.5"/>
<polygon fill="black" stroke="black" points="887.23,-316 897.23,-312.5 887.23,-309 887.23,-316"/>
</g>
<!-- n14 -->
<g id="node12" class="node">
<title>n14</title>
<polygon fill="none" stroke="black" points="552.14,-168.5 475.17,-150.5 552.14,-132.5 629.1,-150.5 552.14,-168.5"/>
<text xml:space="preserve" text-anchor="middle" x="552.14" y="-145.45" font-family="Times,serif" font-size="14.00">alu_io_zero</text>
</g>
<!-- x19 -->
<g id="node58" class="node">
<title>x19</title>
<ellipse fill="black" stroke="black" cx="902.03" cy="-128.5" rx="1.8" ry="1.8"/>
</g>
<!-- n14&#45;&gt;x19 -->
<g id="edge10" class="edge">
<title>n14:e&#45;&gt;x19:w</title>
<path fill="none" stroke="black" d="M632.02,-150.5C747.13,-150.5 777.85,-129.9 887.52,-128.57"/>
<polygon fill="black" stroke="black" points="887.26,-132.07 897.23,-128.51 887.21,-125.07 887.26,-132.07"/>
</g>
<!-- n15 -->
<g id="node13" class="node">
<title>n15</title>
<polygon fill="none" stroke="black" points="552.14,-222.5 468.66,-204.5 552.14,-186.5 635.61,-204.5 552.14,-222.5"/>
<text xml:space="preserve" text-anchor="middle" x="552.14" y="-199.45" font-family="Times,serif" font-size="14.00">alu_io_result</text>
</g>
<!-- n15&#45;&gt;c46 -->
<g id="edge12" class="edge">
<title>n15:e&#45;&gt;c46:w</title>
<path fill="none" stroke="black" stroke-width="3" d="M638.69,-204.5C679.96,-204.5 699.14,-201.55 727.54,-231.5 773.52,-280 713.86,-332.8 763.54,-377.5 855.9,-460.61 929.22,-360.24 1040.51,-415.5 1056.51,-423.44 1055.59,-441.26 1065.6,-448.43"/>
<polygon fill="black" stroke="black" stroke-width="3" points="1061.57,-450.93 1072.14,-450.27 1063.46,-444.19 1061.57,-450.93"/>
</g>
<!-- x3 -->
<g id="node42" class="node">
<title>x3</title>
<ellipse fill="black" stroke="black" cx="902.03" cy="-204.5" rx="1.8" ry="1.8"/>
</g>
<!-- n15&#45;&gt;x3 -->
<g id="edge14" class="edge">
<title>n15:e&#45;&gt;x3:w</title>
<path fill="none" stroke="black" stroke-width="3" d="M638.69,-204.5C750.44,-204.5 781.15,-204.5 887.52,-204.5"/>
<polygon fill="black" stroke="black" stroke-width="3" points="884.21,-208 894.21,-204.5 884.21,-201 884.21,-208"/>
</g>
<!-- x20 -->
<g id="node59" class="node">
<title>x20</title>
<ellipse fill="black" stroke="black" cx="902.03" cy="-166.5" rx="1.8" ry="1.8"/>
</g>
<!-- n15&#45;&gt;x20 -->
<g id="edge13" class="edge">
<title>n15:e&#45;&gt;x20:w</title>
<path fill="none" stroke="black" stroke-width="3" d="M638.69,-204.5C751.62,-204.5 780.09,-168.98 887.4,-166.62"/>
<polygon fill="black" stroke="black" stroke-width="3" points="884.25,-170.16 894.21,-166.55 884.17,-163.16 884.25,-170.16"/>
</g>
<!-- n16 -->
<g id="node14" class="node">
<title>n16</title>
<polygon fill="none" stroke="black" points="552.14,-560.5 459.97,-542.5 552.14,-524.5 644.3,-542.5 552.14,-560.5"/>
<text xml:space="preserve" text-anchor="middle" x="552.14" y="-537.45" font-family="Times,serif" font-size="14.00">alu_io_opcode</text>
</g>
<!-- n17 -->
<g id="node15" class="node">
<title>n17</title>
<polygon fill="none" stroke="black" points="552.14,-60.5 491.09,-42.5 552.14,-24.5 613.18,-42.5 552.14,-60.5"/>
<text xml:space="preserve" text-anchor="middle" x="552.14" y="-37.45" font-family="Times,serif" font-size="14.00">alu_io_b</text>
</g>
<!-- n18 -->
<g id="node16" class="node">
<title>n18</title>
<polygon fill="none" stroke="black" points="552.14,-114.5 491.82,-96.5 552.14,-78.5 612.45,-96.5 552.14,-114.5"/>
<text xml:space="preserve" text-anchor="middle" x="552.14" y="-91.45" font-family="Times,serif" font-size="14.00">alu_io_a</text>
</g>
<!-- n19 -->
<g id="node17" class="node">
<title>n19</title>
<polygon fill="none" stroke="black" points="1991.64,-493.04 1991.64,-507.96 1943.83,-518.5 1876.21,-518.5 1828.4,-507.96 1828.4,-493.04 1876.21,-482.5 1943.83,-482.5 1991.64,-493.04"/>
<text xml:space="preserve" text-anchor="middle" x="1910.02" y="-495.45" font-family="Times,serif" font-size="14.00">io_telemetryData</text>
</g>
<!-- n20 -->
<g id="node18" class="node">
<title>n20</title>
<polygon fill="none" stroke="black" points="997.49,-543.04 997.49,-557.96 941.57,-568.5 862.48,-568.5 806.56,-557.96 806.56,-543.04 862.48,-532.5 941.57,-532.5 997.49,-543.04"/>
<text xml:space="preserve" text-anchor="middle" x="902.03" y="-545.45" font-family="Times,serif" font-size="14.00">io_telemetryAddress</text>
</g>
<!-- n20&#45;&gt;c46 -->
<g id="edge20" class="edge">
<title>n20:e&#45;&gt;c46:w</title>
<path fill="none" stroke="black" stroke-width="3" d="M998.9,-550.5C1020.94,-550.5 1024.36,-538.51 1040.51,-523.5 1056.43,-508.71 1052.63,-486.22 1065.38,-478.62"/>
<polygon fill="black" stroke="black" stroke-width="3" points="1063.16,-482.73 1072.09,-477.04 1061.56,-475.92 1063.16,-482.73"/>
</g>
<!-- x2 -->
<g id="node41" class="node">
<title>x2</title>
<ellipse fill="black" stroke="black" cx="1231.39" cy="-628.5" rx="1.8" ry="1.8"/>
</g>
<!-- n20&#45;&gt;x2 -->
<g id="edge21" class="edge">
<title>n20:e&#45;&gt;x2:w</title>
<path fill="none" stroke="black" stroke-width="3" d="M998.9,-550.5C1044.47,-550.5 1034.4,-600.08 1076.51,-617.5 1135.28,-641.81 1157.88,-630.1 1216.69,-628.64"/>
<polygon fill="black" stroke="black" stroke-width="3" points="1213.61,-632.18 1223.57,-628.56 1213.53,-625.18 1213.61,-632.18"/>
</g>
<!-- n21 -->
<g id="node19" class="node">
<title>n21</title>
<polygon fill="none" stroke="black" points="1632.04,-419.04 1632.04,-433.96 1605.97,-444.5 1569.1,-444.5 1543.03,-433.96 1543.03,-419.04 1569.1,-408.5 1605.97,-408.5 1632.04,-419.04"/>
<text xml:space="preserve" text-anchor="middle" x="1587.53" y="-421.45" font-family="Times,serif" font-size="14.00">io_valid</text>
</g>
<!-- n22 -->
<g id="node20" class="node">
<title>n22</title>
<polygon fill="none" stroke="black" points="596.08,-643.04 596.08,-657.96 570.34,-668.5 533.93,-668.5 508.19,-657.96 508.19,-643.04 533.93,-632.5 570.34,-632.5 596.08,-643.04"/>
<text xml:space="preserve" text-anchor="middle" x="552.14" y="-645.45" font-family="Times,serif" font-size="14.00">io_done</text>
</g>
<!-- n23 -->
<g id="node21" class="node">
<title>n23</title>
<polygon fill="none" stroke="black" points="595.53,-697.04 595.53,-711.96 570.11,-722.5 534.16,-722.5 508.74,-711.96 508.74,-697.04 534.16,-686.5 570.11,-686.5 595.53,-697.04"/>
<text xml:space="preserve" text-anchor="middle" x="552.14" y="-699.45" font-family="Times,serif" font-size="14.00">io_busy</text>
</g>
<!-- n24 -->
<g id="node22" class="node">
<title>n24</title>
<polygon fill="none" stroke="black" points="1291.96,-251.04 1291.96,-265.96 1256.48,-276.5 1206.3,-276.5 1170.82,-265.96 1170.82,-251.04 1206.3,-240.5 1256.48,-240.5 1291.96,-251.04"/>
<text xml:space="preserve" text-anchor="middle" x="1231.39" y="-253.45" font-family="Times,serif" font-size="14.00">io_overflow</text>
</g>
<!-- n25 -->
<g id="node23" class="node">
<title>n25</title>
<polygon fill="none" stroke="black" points="1276.45,-659.04 1276.45,-673.96 1250.05,-684.5 1212.73,-684.5 1186.33,-673.96 1186.33,-659.04 1212.73,-648.5 1250.05,-648.5 1276.45,-659.04"/>
<text xml:space="preserve" text-anchor="middle" x="1231.39" y="-661.45" font-family="Times,serif" font-size="14.00">io_carry</text>
</g>
<!-- n26 -->
<g id="node24" class="node">
<title>n26</title>
<polygon fill="none" stroke="black" points="1289.74,-305.04 1289.74,-319.96 1255.56,-330.5 1207.22,-330.5 1173.04,-319.96 1173.04,-305.04 1207.22,-294.5 1255.56,-294.5 1289.74,-305.04"/>
<text xml:space="preserve" text-anchor="middle" x="1231.39" y="-307.45" font-family="Times,serif" font-size="14.00">io_negative</text>
</g>
<!-- n27 -->
<g id="node25" class="node">
<title>n27</title>
<polygon fill="none" stroke="black" points="1273.12,-89.04 1273.12,-103.96 1248.68,-114.5 1214.1,-114.5 1189.66,-103.96 1189.66,-89.04 1214.1,-78.5 1248.68,-78.5 1273.12,-89.04"/>
<text xml:space="preserve" text-anchor="middle" x="1231.39" y="-91.45" font-family="Times,serif" font-size="14.00">io_zero</text>
</g>
<!-- n28 -->
<g id="node26" class="node">
<title>n28</title>
<polygon fill="none" stroke="black" points="1278.11,-143.04 1278.11,-157.96 1250.74,-168.5 1212.04,-168.5 1184.67,-157.96 1184.67,-143.04 1212.04,-132.5 1250.74,-132.5 1278.11,-143.04"/>
<text xml:space="preserve" text-anchor="middle" x="1231.39" y="-145.45" font-family="Times,serif" font-size="14.00">io_result</text>
</g>
<!-- n29 -->
<g id="node27" class="node">
<title>n29</title>
<polygon fill="none" stroke="black" points="985.31,-489.04 985.31,-503.96 936.52,-514.5 867.53,-514.5 818.74,-503.96 818.74,-489.04 867.53,-478.5 936.52,-478.5 985.31,-489.04"/>
<text xml:space="preserve" text-anchor="middle" x="902.03" y="-491.45" font-family="Times,serif" font-size="14.00">io_operationValid</text>
</g>
<!-- n29&#45;&gt;c46 -->
<g id="edge30" class="edge">
<title>n29:e&#45;&gt;c46:w</title>
<path fill="none" stroke="black" d="M986.66,-496.5C1022.57,-496.5 1034.22,-499.73 1065.2,-500.38"/>
<polygon fill="black" stroke="black" points="1064.97,-503.88 1075,-500.48 1065.04,-496.88 1064.97,-503.88"/>
</g>
<!-- x4 -->
<g id="node43" class="node">
<title>x4</title>
<ellipse fill="black" stroke="black" cx="1231.39" cy="-606.5" rx="1.8" ry="1.8"/>
</g>
<!-- n29&#45;&gt;x4 -->
<g id="edge32" class="edge">
<title>n29:e&#45;&gt;x4:w</title>
<path fill="none" stroke="black" d="M986.66,-496.5C1013.43,-496.5 1021.59,-504.56 1040.51,-523.5 1065.8,-548.81 1046.78,-575.6 1076.51,-595.5 1129.37,-630.87 1157.19,-609.39 1216.63,-606.76"/>
<polygon fill="black" stroke="black" points="1216.68,-610.26 1226.6,-606.53 1216.52,-603.26 1216.68,-610.26"/>
</g>
<!-- x11 -->
<g id="node50" class="node">
<title>x11</title>
<ellipse fill="black" stroke="black" cx="1231.39" cy="-394.5" rx="1.8" ry="1.8"/>
</g>
<!-- n29&#45;&gt;x11 -->
<g id="edge31" class="edge">
<title>n29:e&#45;&gt;x11:w</title>
<path fill="none" stroke="black" d="M986.66,-496.5C1013.43,-496.5 1021.13,-487.98 1040.51,-469.5 1064.13,-446.98 1048.96,-422.99 1076.51,-405.5 1130.21,-371.43 1157.29,-391.76 1216.64,-394.26"/>
<polygon fill="black" stroke="black" points="1216.53,-397.76 1226.6,-394.47 1216.67,-390.76 1216.53,-397.76"/>
</g>
<!-- n30 -->
<g id="node28" class="node">
<title>n30</title>
<polygon fill="none" stroke="black" points="106.73,-494.04 106.73,-508.96 75.47,-519.5 31.26,-519.5 0,-508.96 0,-494.04 31.26,-483.5 75.47,-483.5 106.73,-494.04"/>
<text xml:space="preserve" text-anchor="middle" x="53.37" y="-496.45" font-family="Times,serif" font-size="14.00">io_opcode</text>
</g>
<!-- c38 -->
<g id="node34" class="node">
<title>c38</title>
<polygon fill="none" stroke="black" points="194.48,-567 194.48,-616 288.98,-616 288.98,-567 194.48,-567"/>
<text xml:space="preserve" text-anchor="middle" x="207.36" y="-598.7" font-family="Times,serif" font-size="14.00">A</text>
<polyline fill="none" stroke="black" points="194.48,-591.5 220.23,-591.5"/>
<text xml:space="preserve" text-anchor="middle" x="207.36" y="-574.2" font-family="Times,serif" font-size="14.00">B</text>
<polyline fill="none" stroke="black" points="220.23,-567 220.23,-616"/>
<text xml:space="preserve" text-anchor="middle" x="241.73" y="-594.7" font-family="Times,serif" font-size="14.00">$498</text>
<text xml:space="preserve" text-anchor="middle" x="241.73" y="-578.2" font-family="Times,serif" font-size="14.00">$eq</text>
<polyline fill="none" stroke="black" points="263.23,-567 263.23,-616"/>
<text xml:space="preserve" text-anchor="middle" x="276.11" y="-586.7" font-family="Times,serif" font-size="14.00">Y</text>
</g>
<!-- n30&#45;&gt;c38 -->
<g id="edge35" class="edge">
<title>n30:e&#45;&gt;c38:w</title>
<path fill="none" stroke="black" stroke-width="3" d="M106.73,-501.5C134.84,-501.5 124.67,-531.96 142.73,-553.5 160.34,-574.49 161.71,-596.69 182.18,-602.37"/>
<polygon fill="black" stroke="black" stroke-width="3" points="178.62,-605.46 188.98,-603.2 179.48,-598.51 178.62,-605.46"/>
</g>
<!-- c40 -->
<g id="node37" class="node">
<title>c40</title>
<polygon fill="none" stroke="black" points="194.48,-413 194.48,-462 288.98,-462 288.98,-413 194.48,-413"/>
<text xml:space="preserve" text-anchor="middle" x="207.36" y="-444.7" font-family="Times,serif" font-size="14.00">A</text>
<polyline fill="none" stroke="black" points="194.48,-437.5 220.23,-437.5"/>
<text xml:space="preserve" text-anchor="middle" x="207.36" y="-420.2" font-family="Times,serif" font-size="14.00">B</text>
<polyline fill="none" stroke="black" points="220.23,-413 220.23,-462"/>
<text xml:space="preserve" text-anchor="middle" x="241.73" y="-440.7" font-family="Times,serif" font-size="14.00">$496</text>
<text xml:space="preserve" text-anchor="middle" x="241.73" y="-424.2" font-family="Times,serif" font-size="14.00">$eq</text>
<polyline fill="none" stroke="black" points="263.23,-413 263.23,-462"/>
<text xml:space="preserve" text-anchor="middle" x="276.11" y="-432.7" font-family="Times,serif" font-size="14.00">Y</text>
</g>
<!-- n30&#45;&gt;c40 -->
<g id="edge36" class="edge">
<title>n30:e&#45;&gt;c40:w</title>
<path fill="none" stroke="black" stroke-width="3" d="M106.73,-501.5C127.56,-501.5 124.98,-482.38 142.73,-471.5 160.06,-460.88 166.66,-452.93 182.36,-450.52"/>
<polygon fill="black" stroke="black" stroke-width="3" points="179.22,-454.24 188.95,-450.06 178.74,-447.26 179.22,-454.24"/>
</g>
<!-- c41 -->
<g id="node38" class="node">
<title>c41</title>
<polygon fill="none" stroke="black" points="179.11,-481 179.11,-522 304.36,-522 304.36,-481 179.11,-481"/>
<text xml:space="preserve" text-anchor="middle" x="191.98" y="-496.7" font-family="Times,serif" font-size="14.00">A</text>
<polyline fill="none" stroke="black" points="204.86,-481 204.86,-522"/>
<text xml:space="preserve" text-anchor="middle" x="241.73" y="-504.7" font-family="Times,serif" font-size="14.00">$495</text>
<text xml:space="preserve" text-anchor="middle" x="241.73" y="-488.2" font-family="Times,serif" font-size="14.00">$logic_not</text>
<polyline fill="none" stroke="black" points="278.61,-481 278.61,-522"/>
<text xml:space="preserve" text-anchor="middle" x="291.48" y="-496.7" font-family="Times,serif" font-size="14.00">Y</text>
</g>
<!-- n30&#45;&gt;c41 -->
<g id="edge37" class="edge">
<title>n30:e&#45;&gt;c41:w</title>
<path fill="none" stroke="black" stroke-width="3" d="M106.73,-501.5C134.24,-501.5 143.86,-501.69 166.62,-501.74"/>
<polygon fill="black" stroke="black" stroke-width="3" points="163.56,-505.23 173.57,-501.75 163.57,-498.23 163.56,-505.23"/>
</g>
<!-- c47 -->
<g id="node40" class="node">
<title>c47</title>
<polygon fill="none" stroke="black" points="142.73,-182.25 142.73,-304.75 340.73,-304.75 340.73,-182.25 142.73,-182.25"/>
<text xml:space="preserve" text-anchor="middle" x="178.86" y="-279.45" font-family="Times,serif" font-size="14.00">io_a</text>
<polyline fill="none" stroke="black" points="142.73,-264.25 214.98,-264.25"/>
<text xml:space="preserve" text-anchor="middle" x="178.86" y="-238.95" font-family="Times,serif" font-size="14.00">io_b</text>
<polyline fill="none" stroke="black" points="142.73,-223.75 214.98,-223.75"/>
<text xml:space="preserve" text-anchor="middle" x="178.86" y="-197.95" font-family="Times,serif" font-size="14.00">io_opcode</text>
<polyline fill="none" stroke="black" points="214.98,-182.25 214.98,-304.75"/>
<text xml:space="preserve" text-anchor="middle" x="236.86" y="-246.7" font-family="Times,serif" font-size="14.00">alu</text>
<text xml:space="preserve" text-anchor="middle" x="236.86" y="-230.2" font-family="Times,serif" font-size="14.00">ALU</text>
<polyline fill="none" stroke="black" points="258.73,-182.25 258.73,-304.75"/>
<text xml:space="preserve" text-anchor="middle" x="299.73" y="-287.45" font-family="Times,serif" font-size="14.00">io_carry</text>
<polyline fill="none" stroke="black" points="258.73,-280.25 340.73,-280.25"/>
<text xml:space="preserve" text-anchor="middle" x="299.73" y="-262.95" font-family="Times,serif" font-size="14.00">io_negative</text>
<polyline fill="none" stroke="black" points="258.73,-255.75 340.73,-255.75"/>
<text xml:space="preserve" text-anchor="middle" x="299.73" y="-238.45" font-family="Times,serif" font-size="14.00">io_overflow</text>
<polyline fill="none" stroke="black" points="258.73,-231.25 340.73,-231.25"/>
<text xml:space="preserve" text-anchor="middle" x="299.73" y="-213.95" font-family="Times,serif" font-size="14.00">io_result</text>
<polyline fill="none" stroke="black" points="258.73,-206.75 340.73,-206.75"/>
<text xml:space="preserve" text-anchor="middle" x="299.73" y="-189.45" font-family="Times,serif" font-size="14.00">io_zero</text>
</g>
<!-- n30&#45;&gt;c47 -->
<g id="edge38" class="edge">
<title>n30:e&#45;&gt;c47:w</title>
<path fill="none" stroke="black" stroke-width="3" d="M106.73,-501.5C169.37,-501.5 87.48,-239.15 132.05,-206.35"/>
<polygon fill="black" stroke="black" stroke-width="3" points="129.91,-210.69 138.4,-204.36 127.81,-204.01 129.91,-210.69"/>
</g>
<!-- x7 -->
<g id="node46" class="node">
<title>x7</title>
<ellipse fill="black" stroke="black" cx="241.73" cy="-542.5" rx="1.8" ry="1.8"/>
</g>
<!-- n30&#45;&gt;x7 -->
<g id="edge39" class="edge">
<title>n30:e&#45;&gt;x7:w</title>
<path fill="none" stroke="black" stroke-width="3" d="M106.73,-501.5C127.56,-501.5 123.59,-523.3 142.73,-531.5 178.41,-546.78 192.87,-543.4 227.14,-542.63"/>
<polygon fill="black" stroke="black" stroke-width="3" points="223.96,-546.17 233.91,-542.55 223.87,-539.17 223.96,-546.17"/>
</g>
<!-- n31 -->
<g id="node29" class="node">
<title>n31</title>
<polygon fill="none" stroke="black" points="82.91,-125.04 82.91,-139.96 65.6,-150.5 41.13,-150.5 23.82,-139.96 23.82,-125.04 41.13,-114.5 65.6,-114.5 82.91,-125.04"/>
<text xml:space="preserve" text-anchor="middle" x="53.37" y="-127.45" font-family="Times,serif" font-size="14.00">io_b</text>
</g>
<!-- n31&#45;&gt;c47 -->
<g id="edge40" class="edge">
<title>n31:e&#45;&gt;c47:w</title>
<path fill="none" stroke="black" stroke-width="3" d="M84.19,-132.5C135.79,-132.5 94.44,-227.26 131.51,-242.06"/>
<polygon fill="black" stroke="black" stroke-width="3" points="127.81,-244.98 138.26,-243.23 129,-238.08 127.81,-244.98"/>
</g>
<!-- x8 -->
<g id="node47" class="node">
<title>x8</title>
<ellipse fill="black" stroke="black" cx="241.73" cy="-78.5" rx="1.8" ry="1.8"/>
</g>
<!-- n31&#45;&gt;x8 -->
<g id="edge41" class="edge">
<title>n31:e&#45;&gt;x8:w</title>
<path fill="none" stroke="black" stroke-width="3" d="M84.19,-132.5C152.86,-132.5 164.64,-84.24 227.09,-78.97"/>
<polygon fill="black" stroke="black" stroke-width="3" points="224.07,-82.59 233.92,-78.69 223.78,-75.6 224.07,-82.59"/>
</g>
<!-- n32 -->
<g id="node30" class="node">
<title>n32</title>
<polygon fill="none" stroke="black" points="82.36,-224.04 82.36,-238.96 65.38,-249.5 41.36,-249.5 24.37,-238.96 24.37,-224.04 41.36,-213.5 65.38,-213.5 82.36,-224.04"/>
<text xml:space="preserve" text-anchor="middle" x="53.37" y="-226.45" font-family="Times,serif" font-size="14.00">io_a</text>
</g>
<!-- n32&#45;&gt;c47 -->
<g id="edge42" class="edge">
<title>n32:e&#45;&gt;c47:w</title>
<path fill="none" stroke="black" stroke-width="3" d="M83.63,-231.5C114.5,-231.5 109.59,-272.08 131.51,-282.22"/>
<polygon fill="black" stroke="black" stroke-width="3" points="127.79,-285.04 138.28,-283.6 129.18,-278.18 127.79,-285.04"/>
</g>
<!-- x9 -->
<g id="node48" class="node">
<title>x9</title>
<ellipse fill="black" stroke="black" cx="241.73" cy="-141.5" rx="1.8" ry="1.8"/>
</g>
<!-- n32&#45;&gt;x9 -->
<g id="edge43" class="edge">
<title>n32:e&#45;&gt;x9:w</title>
<path fill="none" stroke="black" stroke-width="3" d="M83.63,-231.5C120.75,-231.5 111.07,-191.86 142.73,-172.5 177.46,-151.27 191.22,-143 227.13,-141.69"/>
<polygon fill="black" stroke="black" stroke-width="3" points="223.98,-145.25 233.91,-141.58 223.86,-138.25 223.98,-145.25"/>
</g>
<!-- n33 -->
<g id="node31" class="node">
<title>n33</title>
<polygon fill="none" stroke="black" points="932.68,-343.04 932.68,-357.96 914.72,-368.5 889.33,-368.5 871.37,-357.96 871.37,-343.04 889.33,-332.5 914.72,-332.5 932.68,-343.04"/>
<text xml:space="preserve" text-anchor="middle" x="902.03" y="-345.45" font-family="Times,serif" font-size="14.00">reset</text>
</g>
<!-- n33&#45;&gt;c46 -->
<g id="edge44" class="edge">
<title>n33:e&#45;&gt;c46:w</title>
<path fill="none" stroke="black" d="M933.97,-350.5C983.41,-350.5 999.46,-354.94 1040.51,-382.5 1057.68,-394.02 1053.92,-416.2 1065.56,-424.11"/>
<polygon fill="black" stroke="black" points="1064.49,-427.45 1075.05,-426.61 1066.27,-420.68 1064.49,-427.45"/>
</g>
<!-- x5 -->
<g id="node44" class="node">
<title>x5</title>
<ellipse fill="black" stroke="black" cx="1231.39" cy="-350.5" rx="1.8" ry="1.8"/>
</g>
<!-- n33&#45;&gt;x5 -->
<g id="edge45" class="edge">
<title>n33:e&#45;&gt;x5:w</title>
<path fill="none" stroke="black" d="M933.97,-350.5C1060.87,-350.5 1095.38,-350.5 1216.87,-350.5"/>
<polygon fill="black" stroke="black" points="1216.6,-354 1226.6,-350.5 1216.6,-347 1216.6,-354"/>
</g>
<!-- n34 -->
<g id="node32" class="node">
<title>n34</title>
<polygon fill="none" stroke="black" points="935.45,-435.04 935.45,-449.96 915.87,-460.5 888.18,-460.5 868.6,-449.96 868.6,-435.04 888.18,-424.5 915.87,-424.5 935.45,-435.04"/>
<text xml:space="preserve" text-anchor="middle" x="902.03" y="-437.45" font-family="Times,serif" font-size="14.00">clock</text>
</g>
<!-- n34&#45;&gt;c46 -->
<g id="edge46" class="edge">
<title>n34:e&#45;&gt;c46:w</title>
<path fill="none" stroke="black" d="M936.76,-442.5C984.41,-442.5 1005.55,-437.13 1040.51,-469.5 1073.32,-499.87 1035.54,-561.52 1065.52,-572.36"/>
<polygon fill="black" stroke="black" points="1064.61,-575.76 1075.02,-573.78 1065.64,-568.84 1064.61,-575.76"/>
</g>
<!-- x6 -->
<g id="node45" class="node">
<title>x6</title>
<ellipse fill="black" stroke="black" cx="1231.39" cy="-372.5" rx="1.8" ry="1.8"/>
</g>
<!-- n34&#45;&gt;x6 -->
<g id="edge47" class="edge">
<title>n34:e&#45;&gt;x6:w</title>
<path fill="none" stroke="black" d="M936.76,-442.5C1004.18,-442.5 1010.96,-399.26 1076.51,-383.5 1138.35,-368.63 1158.24,-372.01 1216.72,-372.46"/>
<polygon fill="black" stroke="black" points="1216.58,-375.96 1226.6,-372.49 1216.61,-368.96 1216.58,-375.96"/>
</g>
<!-- v0 -->
<g id="node33" class="node">
<title>v0</title>
<ellipse fill="none" stroke="black" cx="53.37" cy="-579.5" rx="35.49" ry="18"/>
<text xml:space="preserve" text-anchor="middle" x="53.37" y="-574.45" font-family="Times,serif" font-size="14.00">4&#39;1010</text>
</g>
<!-- v0&#45;&gt;c38 -->
<g id="edge56" class="edge">
<title>v0:e&#45;&gt;c38:w</title>
<path fill="none" stroke="black" stroke-width="3" d="M90.18,-579.5C132.15,-579.5 145.35,-579.29 182.37,-579.26"/>
<polygon fill="black" stroke="black" stroke-width="3" points="178.94,-582.76 188.94,-579.25 178.94,-575.76 178.94,-582.76"/>
</g>
<!-- c38&#45;&gt;n6 -->
<g id="edge50" class="edge">
<title>c38:e&#45;&gt;n6:w</title>
<path fill="none" stroke="black" d="M289.98,-591.75C324.52,-591.75 335.79,-595.55 365.42,-596.35"/>
<polygon fill="black" stroke="black" points="365.17,-599.85 375.22,-596.48 365.27,-592.85 365.17,-599.85"/>
</g>
<!-- c39 -->
<g id="node35" class="node">
<title>c39</title>
<polygon fill="none" stroke="black" points="504.89,-457 504.89,-506 599.39,-506 599.39,-457 504.89,-457"/>
<text xml:space="preserve" text-anchor="middle" x="517.76" y="-488.7" font-family="Times,serif" font-size="14.00">A</text>
<polyline fill="none" stroke="black" points="504.89,-481.5 530.64,-481.5"/>
<text xml:space="preserve" text-anchor="middle" x="517.76" y="-464.2" font-family="Times,serif" font-size="14.00">B</text>
<polyline fill="none" stroke="black" points="530.64,-457 530.64,-506"/>
<text xml:space="preserve" text-anchor="middle" x="552.14" y="-484.7" font-family="Times,serif" font-size="14.00">$497</text>
<text xml:space="preserve" text-anchor="middle" x="552.14" y="-468.2" font-family="Times,serif" font-size="14.00">$or</text>
<polyline fill="none" stroke="black" points="573.64,-457 573.64,-506"/>
<text xml:space="preserve" text-anchor="middle" x="586.51" y="-476.7" font-family="Times,serif" font-size="14.00">Y</text>
</g>
<!-- c39&#45;&gt;n7 -->
<g id="edge52" class="edge">
<title>c39:e&#45;&gt;n7:w</title>
<path fill="none" stroke="black" d="M600.39,-481.75C658.85,-481.75 686.66,-473.7 727.54,-515.5 772.1,-561.07 705.16,-651.79 752.13,-663.29"/>
<polygon fill="black" stroke="black" points="751.72,-666.77 762.03,-664.34 752.46,-659.81 751.72,-666.77"/>
</g>
<!-- v1 -->
<g id="node36" class="node">
<title>v1</title>
<ellipse fill="none" stroke="black" cx="53.37" cy="-425.5" rx="35.49" ry="18"/>
<text xml:space="preserve" text-anchor="middle" x="53.37" y="-420.45" font-family="Times,serif" font-size="14.00">4&#39;0001</text>
</g>
<!-- v1&#45;&gt;c40 -->
<g id="edge57" class="edge">
<title>v1:e&#45;&gt;c40:w</title>
<path fill="none" stroke="black" stroke-width="3" d="M90.18,-425.5C132.15,-425.5 145.35,-425.29 182.37,-425.26"/>
<polygon fill="black" stroke="black" stroke-width="3" points="178.94,-428.76 188.94,-425.25 178.94,-421.76 178.94,-428.76"/>
</g>
<!-- c40&#45;&gt;c39 -->
<g id="edge1" class="edge">
<title>c40:e&#45;&gt;c39:w</title>
<path fill="none" stroke="black" d="M289.98,-437.75C382.13,-437.75 405.89,-466.72 492.43,-469.1"/>
<polygon fill="black" stroke="black" points="492.33,-472.59 502.37,-469.23 492.42,-465.59 492.33,-472.59"/>
</g>
<!-- c41&#45;&gt;c39 -->
<g id="edge19" class="edge">
<title>c41:e&#45;&gt;c39:w</title>
<path fill="none" stroke="black" d="M305.36,-501.75C389.7,-501.75 413.48,-494.45 492.37,-493.8"/>
<polygon fill="black" stroke="black" points="492.39,-497.3 502.37,-493.76 492.36,-490.3 492.39,-497.3"/>
</g>
<!-- c46&#45;&gt;n3 -->
<g id="edge33" class="edge">
<title>c46:e&#45;&gt;n3:w</title>
<path fill="none" stroke="black" stroke-width="3" d="M1386.26,-500.5C1409.12,-500.5 1417.51,-500.5 1435.85,-500.5"/>
<polygon fill="black" stroke="black" stroke-width="3" points="1432.67,-504 1442.67,-500.5 1432.67,-497 1432.67,-504"/>
</g>
<!-- c47&#45;&gt;n11 -->
<g id="edge3" class="edge">
<title>c47:e&#45;&gt;n11:w</title>
<path fill="none" stroke="black" d="M340.73,-243.5C384.24,-243.5 397.04,-256.03 435.26,-258.19"/>
<polygon fill="black" stroke="black" points="435.16,-261.69 445.25,-258.46 435.35,-254.69 435.16,-261.69"/>
</g>
<!-- c47&#45;&gt;n12 -->
<g id="edge5" class="edge">
<title>c47:e&#45;&gt;n12:w</title>
<path fill="none" stroke="black" d="M340.73,-292.5C367.05,-292.5 357.06,-322.03 376.73,-339.5 408.89,-368.06 419.03,-389.53 456.48,-393"/>
<polygon fill="black" stroke="black" points="456.15,-396.49 466.29,-393.43 456.45,-389.5 456.15,-396.49"/>
</g>
<!-- c47&#45;&gt;n13 -->
<g id="edge7" class="edge">
<title>c47:e&#45;&gt;n13:w</title>
<path fill="none" stroke="black" d="M340.73,-268C358.52,-268 360.37,-278.52 376.73,-285.5 404.7,-297.43 413.18,-309.25 438.31,-311.93"/>
<polygon fill="black" stroke="black" points="438.07,-315.43 448.23,-312.43 438.42,-308.43 438.07,-315.43"/>
</g>
<!-- c47&#45;&gt;n14 -->
<g id="edge9" class="edge">
<title>c47:e&#45;&gt;n14:w</title>
<path fill="none" stroke="black" d="M340.73,-194.5C358.43,-194.5 360.16,-183.71 376.73,-177.5 414.34,-163.42 426.07,-152.6 461.14,-150.77"/>
<polygon fill="black" stroke="black" points="460.83,-154.28 470.74,-150.54 460.66,-147.28 460.83,-154.28"/>
</g>
<!-- c47&#45;&gt;n15 -->
<g id="edge11" class="edge">
<title>c47:e&#45;&gt;n15:w</title>
<path fill="none" stroke="black" stroke-width="3" d="M340.73,-219C392.56,-219 407.6,-206.52 454.1,-204.72"/>
<polygon fill="black" stroke="black" stroke-width="3" points="451.11,-208.27 461.04,-204.59 450.97,-201.27 451.11,-208.27"/>
</g>
<!-- x2&#45;&gt;n4 -->
<g id="edge48" class="edge">
<title>x2:e&#45;&gt;n4:w</title>
<path fill="none" stroke="black" stroke-width="3" d="M1234.67,-628.5C1302.22,-628.5 1319.01,-633.09 1386.26,-639.5 1400.71,-640.88 1406.75,-643.08 1417.3,-644.03"/>
<polygon fill="black" stroke="black" stroke-width="3" points="1413.95,-647.4 1424.08,-644.31 1414.23,-640.4 1413.95,-647.4"/>
</g>
<!-- x3&#45;&gt;n5 -->
<g id="edge49" class="edge">
<title>x3:e&#45;&gt;n5:w</title>
<path fill="none" stroke="black" stroke-width="3" d="M905.3,-204.5C992.23,-204.5 1016.76,-204.5 1098.32,-204.5"/>
<polygon fill="black" stroke="black" stroke-width="3" points="1095.12,-208 1105.12,-204.5 1095.12,-201 1095.12,-208"/>
</g>
<!-- x4&#45;&gt;n8 -->
<g id="edge54" class="edge">
<title>x4:e&#45;&gt;n8:w</title>
<path fill="none" stroke="black" d="M1234.67,-606.5C1302.22,-606.5 1319.08,-602.59 1386.26,-595.5 1397.81,-594.28 1403.01,-592.23 1411.02,-591.17"/>
<polygon fill="black" stroke="black" points="1410.98,-594.68 1420.75,-590.59 1410.56,-587.7 1410.98,-594.68"/>
</g>
<!-- x5&#45;&gt;n9 -->
<g id="edge55" class="edge">
<title>x5:e&#45;&gt;n9:w</title>
<path fill="none" stroke="black" d="M1234.67,-350.5C1302.22,-350.5 1319.36,-348.83 1386.26,-339.5 1427.81,-333.7 1439.54,-320.96 1476.29,-318.81"/>
<polygon fill="black" stroke="black" points="1475.96,-322.32 1485.86,-318.54 1475.76,-315.32 1475.96,-322.32"/>
</g>
<!-- x6&#45;&gt;n10 -->
<g id="edge2" class="edge">
<title>x6:e&#45;&gt;n10:w</title>
<path fill="none" stroke="black" d="M1234.67,-372.5C1341.44,-372.5 1370.94,-372.5 1472.28,-372.5"/>
<polygon fill="black" stroke="black" points="1472.14,-376 1482.14,-372.5 1472.14,-369 1472.14,-376"/>
</g>
<!-- x7&#45;&gt;n16 -->
<g id="edge15" class="edge">
<title>x7:e&#45;&gt;n16:w</title>
<path fill="none" stroke="black" stroke-width="3" d="M245.01,-542.5C335.13,-542.5 360.5,-542.5 445.19,-542.5"/>
<polygon fill="black" stroke="black" stroke-width="3" points="442.13,-546 452.13,-542.5 442.13,-539 442.13,-546"/>
</g>
<!-- x8&#45;&gt;n17 -->
<g id="edge16" class="edge">
<title>x8:e&#45;&gt;n17:w</title>
<path fill="none" stroke="black" stroke-width="3" d="M245.01,-78.5C350.59,-78.5 377.31,-44.99 477.34,-42.63"/>
<polygon fill="black" stroke="black" stroke-width="3" points="474.08,-46.17 484.03,-42.55 473.99,-39.17 474.08,-46.17"/>
</g>
<!-- x9&#45;&gt;n18 -->
<g id="edge17" class="edge">
<title>x9:e&#45;&gt;n18:w</title>
<path fill="none" stroke="black" stroke-width="3" d="M245.01,-141.5C351.54,-141.5 377.15,-99.61 477.99,-96.66"/>
<polygon fill="black" stroke="black" stroke-width="3" points="474.83,-100.21 484.78,-96.57 474.73,-93.21 474.83,-100.21"/>
</g>
<!-- x10&#45;&gt;n19 -->
<g id="edge18" class="edge">
<title>x10:e&#45;&gt;n19:w</title>
<path fill="none" stroke="black" stroke-width="3" d="M1792.4,-500.5C1803.78,-500.5 1809.09,-500.5 1816.96,-500.5"/>
<polygon fill="black" stroke="black" stroke-width="3" points="1813.86,-504 1823.86,-500.5 1813.86,-497 1813.86,-504"/>
</g>
<!-- x11&#45;&gt;n21 -->
<g id="edge22" class="edge">
<title>x11:e&#45;&gt;n21:w</title>
<path fill="none" stroke="black" d="M1234.67,-394.5C1302.22,-394.5 1319.07,-398.53 1386.26,-405.5 1451.64,-412.28 1469.92,-424.96 1530.27,-426.37"/>
<polygon fill="black" stroke="black" points="1530.06,-429.87 1540.1,-426.48 1530.14,-422.87 1530.06,-429.87"/>
</g>
<!-- v12 -->
<g id="node51" class="node">
<title>v12</title>
<ellipse fill="none" stroke="black" cx="53.37" cy="-650.5" rx="27" ry="18"/>
<text xml:space="preserve" text-anchor="middle" x="53.37" y="-645.45" font-family="Times,serif" font-size="14.00">1&#39;1</text>
</g>
<!-- x13 -->
<g id="node52" class="node">
<title>x13</title>
<ellipse fill="black" stroke="black" cx="241.73" cy="-650.5" rx="1.8" ry="1.8"/>
</g>
<!-- v12&#45;&gt;x13 -->
<g id="edge58" class="edge">
<title>v12:e&#45;&gt;x13:w</title>
<path fill="none" stroke="black" d="M81.62,-650.5C147.38,-650.5 166.61,-650.5 227.09,-650.5"/>
<polygon fill="black" stroke="black" points="226.94,-654 236.94,-650.5 226.94,-647 226.94,-654"/>
</g>
<!-- x13&#45;&gt;n22 -->
<g id="edge23" class="edge">
<title>x13:e&#45;&gt;n22:w</title>
<path fill="none" stroke="black" d="M245.01,-650.5C357.49,-650.5 388.41,-650.5 495.47,-650.5"/>
<polygon fill="black" stroke="black" points="495.26,-654 505.26,-650.5 495.26,-647 495.26,-654"/>
</g>
<!-- v14 -->
<g id="node53" class="node">
<title>v14</title>
<ellipse fill="none" stroke="black" cx="53.37" cy="-704.5" rx="27" ry="18"/>
<text xml:space="preserve" text-anchor="middle" x="53.37" y="-699.45" font-family="Times,serif" font-size="14.00">1&#39;0</text>
</g>
<!-- x15 -->
<g id="node54" class="node">
<title>x15</title>
<ellipse fill="black" stroke="black" cx="241.73" cy="-704.5" rx="1.8" ry="1.8"/>
</g>
<!-- v14&#45;&gt;x15 -->
<g id="edge59" class="edge">
<title>v14:e&#45;&gt;x15:w</title>
<path fill="none" stroke="black" d="M81.62,-704.5C147.38,-704.5 166.61,-704.5 227.09,-704.5"/>
<polygon fill="black" stroke="black" points="226.94,-708 236.94,-704.5 226.94,-701 226.94,-708"/>
</g>
<!-- x15&#45;&gt;n23 -->
<g id="edge24" class="edge">
<title>x15:e&#45;&gt;n23:w</title>
<path fill="none" stroke="black" d="M245.01,-704.5C357.73,-704.5 388.71,-704.5 496,-704.5"/>
<polygon fill="black" stroke="black" points="495.82,-708 505.82,-704.5 495.82,-701 495.82,-708"/>
</g>
<!-- x16&#45;&gt;n24 -->
<g id="edge25" class="edge">
<title>x16:e&#45;&gt;n24:w</title>
<path fill="none" stroke="black" d="M905.3,-258.5C1018.85,-258.5 1050.07,-258.5 1158.15,-258.5"/>
<polygon fill="black" stroke="black" points="1158.05,-262 1168.05,-258.5 1158.05,-255 1158.05,-262"/>
</g>
<!-- x17&#45;&gt;n25 -->
<g id="edge26" class="edge">
<title>x17:e&#45;&gt;n25:w</title>
<path fill="none" stroke="black" d="M905.3,-626.5C965.6,-626.5 980.81,-629.11 1040.51,-637.5 1101.41,-646.06 1117.56,-664.13 1173.56,-666.29"/>
<polygon fill="black" stroke="black" points="1173.33,-669.78 1183.4,-666.47 1173.46,-662.79 1173.33,-669.78"/>
</g>
<!-- x18&#45;&gt;n26 -->
<g id="edge27" class="edge">
<title>x18:e&#45;&gt;n26:w</title>
<path fill="none" stroke="black" d="M905.3,-312.5C1019.81,-312.5 1051.29,-312.5 1160.28,-312.5"/>
<polygon fill="black" stroke="black" points="1160.28,-316 1170.28,-312.5 1160.28,-309 1160.28,-316"/>
</g>
<!-- x19&#45;&gt;n27 -->
<g id="edge28" class="edge">
<title>x19:e&#45;&gt;n27:w</title>
<path fill="none" stroke="black" d="M905.3,-128.5C1028.03,-128.5 1059.81,-98.41 1177.03,-96.59"/>
<polygon fill="black" stroke="black" points="1176.78,-100.09 1186.75,-96.51 1176.72,-93.09 1176.78,-100.09"/>
</g>
<!-- x20&#45;&gt;n28 -->
<g id="edge29" class="edge">
<title>x20:e&#45;&gt;n28:w</title>
<path fill="none" stroke="black" stroke-width="3" d="M905.3,-166.5C1025.17,-166.5 1057.51,-151.48 1171.9,-150.55"/>
<polygon fill="black" stroke="black" stroke-width="3" points="1168.71,-154.06 1178.69,-150.52 1168.68,-147.06 1168.71,-154.06"/>
</g>
</g>
</svg>
